<?xml version="1.0" encoding="UTF-8" standalone="no"?>
<!-- Created with Inkscape (http://www.inkscape.org/) -->

<svg
   version="1.1"
   id="svg1"
   width="466.66666"
   height="1200"
   viewBox="0 0 466.66666 1200"
   sodipodi:docname="front567.svg"
   inkscape:version="1.4.3 (0d15f75, 2025-12-25)"
   xmlns:inkscape="http://www.inkscape.org/namespaces/inkscape"
   xmlns:sodipodi="http://sodipodi.sourceforge.net/DTD/sodipodi-0.dtd"
   xmlns="http://www.w3.org/2000/svg"
   xmlns:svg="http://www.w3.org/2000/svg">
  <defs
     id="defs1">
    <inkscape:path-effect
       effect="spiro"
       id="path-effect19"
       is_visible="true"
       lpeversion="1" />
    <inkscape:path-effect
       effect="spiro"
       id="path-effect18"
       is_visible="true"
       lpeversion="1" />
    <inkscape:path-effect
       effect="simplify"
       id="path-effect17"
       is_visible="true"
       lpeversion="1.3"
       threshold="17,241379"
       steps="1"
       smooth_angles="360"
       helper_size="0"
       simplify_individual_paths="false"
       simplify_just_coalesce="false" />
    <inkscape:path-effect
       effect="spiro"
       id="path-effect16"
       is_visible="true"
       lpeversion="1" />
    <inkscape:path-effect
       effect="simplify"
       id="path-effect15"
       is_visible="true"
       lpeversion="1.3"
       threshold="17,241379"
       steps="1"
       smooth_angles="360"
       helper_size="0"
       simplify_individual_paths="false"
       simplify_just_coalesce="false" />
    <inkscape:path-effect
       effect="spiro"
       id="path-effect14"
       is_visible="true"
       lpeversion="1" />
    <inkscape:path-effect
       effect="simplify"
       id="path-effect13"
       is_visible="true"
       lpeversion="1.3"
       threshold="17,241379"
       steps="1"
       smooth_angles="360"
       helper_size="0"
       simplify_individual_paths="false"
       simplify_just_coalesce="false" />
    <inkscape:path-effect
       effect="spiro"
       id="path-effect12"
       is_visible="true"
       lpeversion="1" />
    <inkscape:path-effect
       effect="simplify"
       id="path-effect11"
       is_visible="true"
       lpeversion="1.3"
       threshold="17,241379"
       steps="1"
       smooth_angles="360"
       helper_size="0"
       simplify_individual_paths="false"
       simplify_just_coalesce="false" />
  </defs>
  <sodipodi:namedview
     id="namedview1"
     pagecolor="#ffffff"
     bordercolor="#000000"
     borderopacity="0.25"
     inkscape:showpageshadow="2"
     inkscape:pageopacity="0.0"
     inkscape:pagecheckerboard="0"
     inkscape:deskcolor="#d1d1d1"
     inkscape:zoom="0.50204581"
     inkscape:cx="151.38061"
     inkscape:cy="0.99592504"
     inkscape:window-width="1920"
     inkscape:window-height="1009"
     inkscape:window-x="-8"
     inkscape:window-y="-8"
     inkscape:window-maximized="1"
     inkscape:current-layer="svg1" />
  <path
     style="opacity:0.4;fill:#000000"
     d="m 192.38814,359.98163 -9.64236,11.01985 1.37748,26.63129 3.21412,6.88741 v 17.44809 l -3.21412,4.13244 v 21.12137 l 5.50992,11.47901 -0.45916,23.41717 14.23397,26.63129 61.52747,2.29581 13.31565,-27.54962 -1.37748,-20.66221 3.21412,-14.23397 0.45916,-24.33549 -1.37748,-19.28473 1.37748,-8.72405 1.37748,-19.74389 -7.34656,-20.66221 -27.09046,-4.5916 -11.479,-0.91832 -11.47901,-0.91832 -27.09045,5.50992 z"
     id="rectus_abdominis"
     inkscape:label="Rectus_Abdominis"
     class="muscles" />
  <path
     style="opacity:0.4;fill:#000000"
     d="m 280.54691,503.69879 c 1.83664,0.91832 24.33549,-0.91832 24.33549,-0.91832 l 15.15229,-22.03969 -3.67328,-32.14122 -14.23397,10.10153 13.77481,-11.01985 2.2958,-30.30457 -10.56068,8.26488 9.1832,-13.31565 2.2958,-10.56068 -5.50992,-5.50993 -19.74389,10.56069 -5.96908,4.5916 -1.83665,23.41717 5.05077,1.83665 -5.05077,11.93816 -1.37748,9.64237 5.96909,0.45916 v 4.13244 l -8.72405,9.64237 z"
     id="external_abdominal_oblique_left"
     inkscape:label="External_Abdominal_Oblique"
     class="muscles" />
  <path
     style="opacity:0.4;fill:#000000"
     d="m 287.89348,233.71257 -8.26489,-33.5187 41.32442,16.98893 z"
     id="trapezius_left"
     inkscape:label="Trapezius"
     class="muscles" />
  <path
     style="opacity:0.4;fill:#000000"
     d="m 287.43432,242.43661 57.85419,-17.90725 20.66221,12.39733 12.85648,21.58053 2.75497,24.33549 -2.29581,27.09046 -32.60037,-20.66221 c 0,0 -7.34657,-18.82557 -7.34657,-16.98893 0,1.83664 -28.46793,-19.74389 -28.46793,-19.74389 z"
     id="deltoid_left"
     inkscape:label="Deltoid"
     class="muscles" />
  <path
     style="opacity:0.4;fill:#000000"
     d="m 233.71257,312.68813 11.93816,-59.69083 39.02862,-7.80573 44.53855,26.6313 1.83664,33.51869 -10.56069,26.6313 -22.03969,21.12137 -25.71297,2.75496 -24.79466,-6.8874 -11.479,-10.10153 z"
     id="pectoralis_major_left"
     inkscape:label="Pectoralis_Major"
     class="muscles" />
  <path
     style="opacity:0.4;fill:#000000"
     d="m 325.08546,342.07438 -0.45916,18.36641 -1.37749,16.98893 -6.8874,5.50993 v 11.01984 l -26.17213,11.01985 -2.2958,-17.90725 4.5916,-4.5916 -5.05076,-4.13245 -0.91833,-11.479 4.13245,-4.5916 6.42824,0.45916 -6.8874,-4.59161 16.07061,-6.42824 18.82557,-14.23397 z"
     id="serratus_anterior_left"
     inkscape:label="Serratus_Anterior"
     class="muscles" />
  <path
     style="opacity:0.4;fill:#000000"
     d="m 335.18698,300.2908 -11.93817,39.48778 -1.37748,41.32443 c 0,0 -0.45916,3.21412 -1.37748,5.50992 -0.91832,2.2958 0,11.479 0,11.479 l 17.44809,-44.53854 z"
     id="latissimus_dorsi_left"
     inkscape:label="Latissimus_Dorsi"
     class="muscles" />
  <path
     style="opacity:0.4;fill:#000000"
     d="m 338.86026,286.05683 -0.91832,67.0374 19.28473,45.91603 21.12137,14.69312 10.10153,-30.76373 -16.98893,-63.82328 -29.38626,-32.14122 z"
     id="biceps_left"
     inkscape:label="Biceps"
     class="muscles" />
  <path
     style="opacity:0.4;fill:#000000"
     d="m 378.8072,317.27973 -1.37748,20.66221 12.39733,55.09923 5.50992,-16.07061 -10.10152,-53.72175 z"
     id="triceps_left"
     inkscape:label="Triceps"
     class="muscles" />
  <path
     style="opacity:0.4;fill:#000000"
     d="m 364.11408,418.75415 -9.18321,-18.82557 -0.91832,31.22289 28.46794,85.40381 -5.50993,-82.64885 z"
     id="flexor_carpi_radialis_left"
     inkscape:label="Flexor_Carpi_Radialis"
     class="muscles" />
  <path
     style="opacity:0.4;fill:#000000"
     d="m 395.33697,386.61293 -14.69312,39.02862 -1.83665,23.41717 12.39733,61.98664 6.8874,-10.56069 1.37749,-57.39503 6.8874,-28.9271 z"
     id="brachioradialis_left"
     inkscape:label="Brachioradialis"
     class="muscles" />
  <path
     style="opacity:0.4;fill:#000000"
     d="m 401.30606,496.81139 0.91832,-17.44809 7.80572,-25.25381 -2.2958,-32.60038 -7.80572,25.25381 z"
     id="extensor_carpi_radialis_longus_left"
     inkscape:label="Extensor_Carpi_Radialis_Longus"
     class="muscles" />
  <path
     style="opacity:0.4;fill:#000000"
     d="m 396.25529,530.33009 4.59161,-12.85649 13.7748,-25.71297 -1.83664,-23.87634 -4.5916,16.07061 -7.34656,15.61145 -5.50993,16.52977 z"
     id="extensor_carpi_radialis_brevis_left"
     inkscape:label="Extensor_Carpi_Radialis_Brevis"
     class="muscles" />
  <path
     style="opacity:0.4;fill:#000000"
     d="m 286.97515,520.22856 -4.13244,109.7393 2.2958,50.96679 2.29581,30.76373 8.72404,44.07939 5.50992,19.74389 4.13245,-5.05076 -4.59161,-30.76374 -6.42824,-53.72175 0.91832,-64.74159 1.83664,-103.77022 -0.91832,-3.67328 z"
     id="sartorius_left"
     inkscape:label="Sartorius"
     class="muscles" />
  <path
     style="opacity:0.4;fill:#000000"
     d="m 314.52477,507.83123 -14.69313,3.67329 c 0,0 -6.42824,36.73282 -3.67328,38.1103 2.75496,1.37748 56.47671,73.46564 56.47671,73.46564 L 338.4011,578.08275 326.46294,541.34993 Z"
     id="gluteus_medius_left"
     inkscape:label="Gluteus_Medius"
     class="muscles" />
  <path
     style="opacity:0.4;fill:#000000"
     d="m 283.30187,524.82016 -16.98893,43.62023 13.77481,22.95801 0.91832,-25.25381 6.42825,-23.41718 z"
     id="iliopsoas_left"
     inkscape:label="Iliopsoas"
     class="muscles" />
  <path
     style="opacity:0.4;fill:#000000"
     d="m 268.60875,571.65451 -0.91833,19.28473 13.77481,22.95801 0.45916,-21.58053 z"
     id="pectineus_left"
     inkscape:label="Pectineus"
     class="muscles" />
  <path
     style="opacity:0.4;fill:#000000"
     d="m 265.85378,570.73619 -20.20305,36.27366 46.37519,135.45227 -4.13244,-28.00877 -18.82557,-58.31336 -1.83665,-14.23396 -0.91832,-67.95572 z"
     id="gracilis_left"
     inkscape:label="Gracilis"
     class="muscles" />
  <path
     style="opacity:0.4;fill:#000000"
     d="m 267.69042,593.6942 3.21413,66.57824 13.31564,24.33549 -0.91832,-69.3332 z"
     id="adductor_longus_left"
     inkscape:label="Adductor_Longus"
     class="muscles" />
  <path
     style="opacity:0.4;fill:#000000"
     d="m 326.46294,791.59227 -18.36641,-13.77481 -12.85649,-106.52518 14.23397,39.94694 18.82557,44.07939 2.2958,35.8145 z"
     id="vastus_medialis_meft"
     inkscape:label="Vastus_Medialis"
     class="muscles" />
  <path
     style="opacity:0.4;fill:#000000"
     d="m 297.995,552.36978 -2.2958,117.08586 31.2229,78.5164 17.44809,7.34657 6.42824,-26.6313 1.83664,-29.84541 -2.75496,-33.5187 -8.26489,-26.17213 -14.23396,-33.97786 -9.18321,-27.09046 z"
     id="vastus_intermedius_left"
     inkscape:label="Vastus_Intermedius"
     class="muscles" />
  <path
     style="opacity:0.4;fill:#000000"
     d="m 320.49385,583.59268 31.68206,92.75037 -1.83664,59.23167 -4.5916,20.66221 18.82557,33.5187 0.45916,-29.84542 1.83664,-56.93587 -2.75496,-34.89618 -11.93817,-48.67099 z"
     id="vastus_lateralis_left"
     inkscape:label="Vastus_Lateralis"
     class="muscles" />
  <path
     style="opacity:0.4;fill:#000000"
     d="m 329.67706,850.82394 6.8874,45.91602 9.64237,23.41718 4.13244,-10.56069 -4.5916,-28.46793 z"
     id="gastrocnemius_left"
     inkscape:label="Gastrocnemius"
     class="muscles" />
  <path
     style="opacity:0.4;fill:#000000"
     d="m 351.25759,912.35141 -4.13244,7.80573 9.64236,39.02862 0.45916,-28.46794 z"
     id="soleus_left"
     inkscape:label="Soleus"
     class="muscles" />
  <path
     style="opacity:0.4;fill:#000000"
     d="m 364.57324,815.4686 v 80.35304 l 4.13244,81.73053 9.64236,-21.12137 6.42825,-53.72175 -3.21412,-36.73282 -9.64237,-37.19198 z"
     id="tibialis_anterior_left"
     inkscape:label="Tibialis_Anterior"
     class="muscles" />
  <path
     style="opacity:0.4;fill:#000000"
     d="m 374.2156,824.65181 4.5916,27.09045 7.80573,50.96679 -6.8874,47.75266 c 0,0 -2.29581,47.29351 0.45916,47.75267 2.75496,0.45916 17.90724,-0.91832 17.90724,-0.91832 l -4.5916,-78.05724 -2.2958,-49.13015 z"
     id="peroneus_longus_left"
     inkscape:label="Peroneus_Longus"
     class="muscles" />
  <path
     style="opacity:0.4;fill:#000000"
     d="m 110.03717,515.98513 8.17844,-49.07063 -7.43494,-34.94424 -21.561339,-37.91822 -6.69145,27.5093 12.639405,37.91821 5.204464,43.12268 z"
     id="brachioradialis_right"
     inkscape:label="Brachioradialis"
     class="muscles" />
  <path
     style="opacity:0.4;fill:#000000"
     d="m 131.59851,393.30855 c 0,0 -18.58736,18.58736 -17.84386,37.91822 0.74349,19.33085 4.46096,81.78438 4.46096,81.78438 l 19.33086,-52.7881 z"
     id="flexor_carpi_radialis_right"
     inkscape:label="Flexor_Carpi_Radialis"
     class="muscles" />
  <path
     style="opacity:0.4;fill:#000000"
     d="M 173.9777,520.4461 192.56506,766.54275 200,721.18959 l 1.48699,-16.35688 -8.92193,-89.96282 -11.89591,-95.16729 z"
     id="sartorius_right"
     inkscape:label="Sartorius"
     class="muscles" />
  <path
     style="opacity:0.4;fill:#000000"
     d="m 171.00372,534.57249 -3.71747,26.02231 -15.61339,32.71375 -17.10037,61.71004 -2.97398,56.50557 10.40893,41.63569 19.33085,1.48699 8.92193,-34.20074 11.89591,-23.04833 3.71748,-23.04833 -5.20446,-40.1487 -7.43495,-41.63568 z"
     id="vastus_intermedius_right"
     inkscape:label="Vastus_Intermedius"
     class="muscles" />
  <path
     style="opacity:0.4;fill:#000000"
     d="m 158.36431,507.0632 15.61339,9.66542 -5.20447,34.20075 -9.66542,22.30483 -26.7658,40.89219 z"
     id="gluteus_medius_right"
     inkscape:label="Gluteus_Medius"
     class="muscles" />
  <path
     style="opacity:0.4;fill:#000000"
     d="m 165.79926,559.8513 -34.20075,52.78811 -12.6394,63.19702 5.94795,43.86617 4.46097,43.12268 11.89591,14.12639 1.48699,-24.53531 -8.17844,-28.25279 -4.46097,-33.45725 4.46097,-40.89219 10.40892,-37.91822 z"
     id="vastus_lateralis_right"
     inkscape:label="Vastus_Lateralis"
     class="muscles" />
  <path
     style="opacity:0.4;fill:#000000"
     d="m 185.87361,676.57993 -4.46097,26.7658 -18.58736,49.81412 2.23048,38.66171 19.33086,-6.69145 5.94795,-20.81784 0.7435,-29.73978 z"
     id="vastus_medialis_right"
     inkscape:label="Vastus_Medialis"
     class="muscles" />
  <path
     style="opacity:0.4;fill:#000000"
     d="m 202.23048,571.74721 31.97026,34.94424 -35.68773,162.08178 -11.15242,13.3829 27.5093,-129.36803 -2.97398,-21.56133 z"
     id="gracilis_right"
     inkscape:label="Gracilis"
     class="muscles" />
  <path
     style="opacity:0.4;fill:#000000"
     d="m 177.92208,242.85714 -51.94805,-13.63636 -18.18182,14.93506 -10.389613,32.46754 7.142853,43.50649 20.77923,-28.57143 18.18181,-29.87013 z"
     id="deltoid_right"
     inkscape:label="Deltoid"
     class="muscles" />
  <path
     style="opacity:0.4;fill:#000000"
     d="m 130.51948,290.90909 -31.168831,50 -1.948052,52.5974 5.844153,22.07793 17.53247,-13.63637 18.83117,-37.66234 -0.64935,-63.63636 z"
     id="biceps_right"
     inkscape:label="Biceps"
     class="muscles" />
  <path
     style="opacity:0.4;fill:#000000"
     d="m 200.64935,565.58442 -9.74026,24.02597 -9.74026,-71.42857 z"
     id="iliopsoas_right"
     inkscape:label="Iliopsoas"
     class="muscles" />
  <path
     style="opacity:0.4;fill:#000000"
     d="m 200.64935,575.32468 4.54546,18.83116 -11.68832,19.48052 -3.24675,-22.72727 z"
     id="pectineus_right"
     inkscape:label="Pectineus"
     class="muscles" />
  <path
     style="opacity:0.4;fill:#000000"
     d="m 205.19481,598.05195 -11.03897,15.58441 6.49351,61.68832 14.93507,-21.42858 z"
     id="adductor_longus_right"
     inkscape:label="Adductor_Longus"
     class="muscles" />
  <path
     style="opacity:0.4;fill:#000000"
     d="m 133.11688,821.42857 5.19481,56.49351 3.24675,120.12987 -8.44156,0.64935 -9.74026,-65.58442 -4.54545,-32.46753 1.94805,-35.71428 z"
     id="tibialis_anterior_right"
     inkscape:label="Tibialis_Anterior"
     class="muscles" />
  <path
     style="opacity:0.4;fill:#000000"
     d="m 166.88312,922.72727 9.74026,-27.92207 1.2987,-50.64936 -17.53247,29.22078 -5.1948,29.22078 -0.64936,11.03896 z"
     id="gastrocnemius_right"
     inkscape:label="Gastrocnemius"
     class="muscles" />
  <path
     style="opacity:0.4;fill:#000000"
     d="m 162.33766,947.4026 4.54546,-25.32468 -12.98702,-5.84415 -1.94805,17.53246 z"
     id="soleus_right"
     inkscape:label="Soleus"
     class="muscles" />
  <path
     style="opacity:0.4;fill:#000000"
     d="m 127.27273,998.7013 -1.2987,-47.4026 -6.49351,-42.85714 v -35.06494 l 13.63636,-47.40259 -9.74026,-4.54546 -5.84415,41.55844 -1.2987,130.51948 z"
     id="peroneus_longus_right"
     inkscape:label="Peroneus_Longus"
     class="muscles" />
  <path
     style="opacity:0.4;fill:#000000"
     d="m 101.2987,506.49351 -2.597401,-28.57143 -8.441559,-38.31169 -6.493506,-9.74026 0.64935,31.16883 7.142858,20.12987 2.597402,20.12987 z"
     id="extensor_carpi_radialis_longus_right"
     inkscape:label="Extensor_Carpi_Radialis_Longus"
     class="muscles" />
  <path
     style="opacity:0.4;fill:#000000"
     d="m 106.06602,537.21749 v -16.98893 l -9.642368,-16.52977 -6.428243,-16.98893 -3.673282,-17.90725 1.37748,34.89618 12.856483,20.20305 z"
     id="extensor_carpi_radialis_brevis_right"
     inkscape:label="Extensor_Carpi_Radialis_Brevis"
     class="muscles" />
  <path
     style="opacity:0.4;fill:#000000"
     d="m 138.20723,282.38355 6.88741,-18.36641 33.5187,-19.74389 34.89618,5.96909 12.85648,69.79235 -8.26488,28.46794 -30.76374,7.80572 -23.87633,-5.96908 -16.07061,-22.03969 z"
     id="pectoralis_major_right"
     inkscape:label="Pectoralis_Major"
     class="muscles" />
  <path
     style="opacity:0.4;fill:#000000"
     d="m 151.52288,343.45187 25.25382,15.15228 -5.50993,3.67329 5.96909,4.5916 1.37748,15.15229 -2.75497,1.83664 3.67329,20.20305 -23.87634,-8.26489 -0.91832,-11.01984 5.05077,-5.05076 -5.05077,-11.47901 -4.5916,-8.72405 z"
     id="serratus_anterior_right"
     inkscape:label="Serratus_Anterior"
     class="muscles" />
  <path
     style="opacity:0.4;fill:#000000"
     d="m 152.90036,383.39881 4.13244,-4.59161 -6.8874,-20.20305 -3.67328,-24.33549 -7.80573,-44.07938 4.59161,65.65991 5.05076,14.69313 z"
     id="latissimus_dorsi"
     inkscape:label="Latissimus_Dorsi"
     class="muscles" />
  <path
     style="opacity:0.4;fill:#000000"
     d="m 162.08357,492.67895 21.12137,19.74389 -1.37748,-40.86527 -7.80573,-10.56068 5.96909,-4.13244 -4.59161,-22.0397 3.21413,-26.17213 -21.12137,-9.1832 2.75496,23.41717 -2.2958,31.2229 -2.29581,21.12137 z"
     id="external_abdominal_oblique_right"
     inkscape:label="External_Abdominal_Oblique"
     class="muscles" />
  <path
     style="opacity:0.4;fill:#000000"
     d="m 177.23586,234.63089 -25.71298,-14.23397 44.07939,-20.66221 z"
     id="trapezius_right"
     inkscape:label="Trapezius"
     class="muscles" />
</svg>
